<svg xmlns="http://www.w3.org/2000/svg" width="800" height="600" viewBox="0 0 800 600">
  <!-- 城市图片 - 简单城市轮廓 -->
  <rect width="800" height="600" fill="#1A1A1A" />
  <rect x="100" y="300" width="100" height="300" fill="#333333" />
  <rect x="200" y="200" width="120" height="400" fill="#444444" />
  <rect x="320" y="350" width="80" height="250" fill="#333333" />
  <rect x="400" y="150" width="150" height="450" fill="#555555" />
  <rect x="550" y="250" width="100" height="350" fill="#444444" />
  <rect x="650" y="350" width="70" height="250" fill="#333333" />
  <!-- 窗户 -->
  <rect x="120" y="330" width="20" height="20" fill="#FFFF00" />
  <rect x="120" y="370" width="20" height="20" fill="#FFFF00" />
  <rect x="120" y="410" width="20" height="20" fill="#FFFF00" />
  <rect x="160" y="330" width="20" height="20" fill="#FFFF00" />
  <rect x="160" y="370" width="20" height="20" fill="#FFFF00" />
  <rect x="160" y="410" width="20" height="20" fill="#FFFF00" />
  <!-- 更多窗户 -->
  <rect x="220" y="230" width="25" height="25" fill="#FFFF00" />
  <rect x="220" y="280" width="25" height="25" fill="#FFFF00" />
  <rect x="220" y="330" width="25" height="25" fill="#FFFF00" />
  <rect x="220" y="380" width="25" height="25" fill="#FFFF00" />
  <rect x="220" y="430" width="25" height="25" fill="#FFFF00" />
  <rect x="220" y="480" width="25" height="25" fill="#FFFF00" />
  <rect x="275" y="230" width="25" height="25" fill="#FFFF00" />
  <rect x="275" y="280" width="25" height="25" fill="#FFFF00" />
  <rect x="275" y="330" width="25" height="25" fill="#FFFF00" />
  <rect x="275" y="380" width="25" height="25" fill="#FFFF00" />
  <rect x="275" y="430" width="25" height="25" fill="#FFFF00" />
  <rect x="275" y="480" width="25" height="25" fill="#FFFF00" />
  <text x="400" y="550" font-family="Arial" font-size="24" text-anchor="middle" fill="white">城市图片 - 夜景</text>
</svg>